<?xml version="1.0" encoding="utf-8"?>
<!-- Generator: Adobe Illustrator 16.0.0, SVG Export Plug-In . SVG Version: 6.00 Build 0)  -->
<!DOCTYPE svg PUBLIC "-//W3C//DTD SVG 1.0//EN" "http://www.w3.org/TR/2001/REC-SVG-20010904/DTD/svg10.dtd">
<svg version="1.0" id="Layer_1" xmlns="http://www.w3.org/2000/svg" xmlns:xlink="http://www.w3.org/1999/xlink" x="0px" y="0px"
	 width="100px" height="100px" viewBox="0 0 100 100" enable-background="new 0 0 100 100" xml:space="preserve">
<path d="M88.789,48.135L78.2,41.4c-1.615-1.025-2.595-3.392-2.182-5.261l2.731-12.246c0.413-1.868-0.774-3.057-2.644-2.643
	L63.86,23.981c-1.868,0.414-4.234-0.566-5.26-2.181l-6.735-10.589c-1.025-1.615-2.705-1.615-3.73,0L41.399,21.8
	c-1.025,1.614-3.392,2.594-5.26,2.181L23.894,21.25c-1.869-0.414-3.057,0.775-2.644,2.643l2.731,12.246
	c0.413,1.869-0.566,4.235-2.182,5.261l-10.589,6.735c-1.614,1.025-1.614,2.705,0,3.73L21.8,58.6
	c1.615,1.025,2.595,3.393,2.182,5.262L21.25,76.107c-0.413,1.867,0.774,3.057,2.644,2.643l12.246-2.73
	c1.868-0.414,4.234,0.566,5.26,2.18l6.735,10.59c1.025,1.615,2.705,1.615,3.73,0l6.735-10.592c1.025-1.615,3.392-2.596,5.26-2.178
	l12.246,2.727c1.869,0.418,3.057-0.771,2.641-2.639l-2.729-12.246c-0.416-1.869,0.563-4.236,2.178-5.262l10.593-6.734
	C90.403,50.84,90.403,49.16,88.789,48.135z M74.619,52.975c-3.987,2.533-6.136,7.723-5.107,12.338l1.204,5.404l-5.406-1.205
	c-0.759-0.17-1.55-0.254-2.351-0.254c-3.997,0-7.917,2.105-9.987,5.365L50,79.301l-2.976-4.678c-2.066-3.26-5.989-5.365-9.986-5.365
	c-0.798,0-1.582,0.084-2.338,0.25l-5.416,1.209l1.204-5.404c1.022-4.625-1.13-9.809-5.114-12.34L20.7,50l4.678-2.975
	c3.98-2.529,6.133-7.712,5.113-12.324l-1.207-5.417l5.403,1.205c0.769,0.169,1.553,0.254,2.351,0.254c3.997,0,7.92-2.106,9.99-5.368
	L50,20.7l2.976,4.678c2.066,3.259,5.989,5.365,9.986,5.365c0.798,0,1.582-0.084,2.338-0.25l5.416-1.208l-1.204,5.404
	c-1.022,4.625,1.13,9.808,5.114,12.34L79.3,50L74.619,52.975z"/>
<path d="M50,33.333c-9.206,0-16.667,7.461-16.667,16.667c0,9.205,7.461,16.666,16.667,16.666S66.667,59.205,66.667,50
	C66.667,40.794,59.206,33.333,50,33.333z M50,60c-5.524,0-10-4.477-10-10c0-5.524,4.476-10,10-10s10,4.476,10,10
	C60,55.523,55.524,60,50,60z"/>
</svg>
