<?xml version="1.0" encoding="utf-8"?>
<!-- Generator: Adobe Illustrator 21.1.0, SVG Export Plug-In . SVG Version: 6.00 Build 0)  -->
<svg version="1.1" id="Layer_1" xmlns="http://www.w3.org/2000/svg" xmlns:xlink="http://www.w3.org/1999/xlink" x="0px" y="0px"
	 viewBox="0 0 100 100" style="enable-background:new 0 0 100 100;" xml:space="preserve">
<style type="text/css">
	.st0{stroke:#000000;stroke-miterlimit:10;}
</style>
<path d="M49.6,15.5c-17.3,0-31.3,14-31.3,31.3s14,31.3,31.3,31.3s31.3-14,31.3-31.3C80.9,29.6,66.9,15.5,49.6,15.5z M49.6,69.3
	c-12.4,0-22.4-10-22.4-22.4s10-22.4,22.4-22.4C62,24.5,72,34.5,72,46.9S62,69.3,49.6,69.3z"/>
<rect x="9.9" y="9.9" transform="matrix(0.7071 -0.7071 0.7071 0.7071 -5.4043 13.0999)" width="6.4" height="6.4"/>
<rect x="81.9" y="11" transform="matrix(0.7071 -0.7071 0.7071 0.7071 15.1433 63.7187)" width="5.2" height="5.2"/>
<rect x="10.3" y="67.3" transform="matrix(0.7071 -0.7071 0.7071 0.7071 -45.306 28.6944)" width="3.4" height="3.4"/>
<rect x="19.2" y="79.9" transform="matrix(0.7071 -0.7071 0.7071 0.7071 -52.6169 41.1002)" width="8.3" height="8.3"/>
<rect x="54.7" y="89.1" transform="matrix(0.7071 -0.7071 0.7071 0.7071 -47.6636 66.3833)" width="3.2" height="3.2"/>
<rect x="84" y="74.9" transform="matrix(0.7071 -0.7071 0.7071 0.7071 -29.6769 84.5156)" width="6.4" height="6.4"/>
<rect x="62.5" y="4.7" transform="matrix(0.7071 -0.7071 0.7071 0.7071 14.3445 47.1646)" width="3.2" height="3.2"/>
<rect x="29.2" y="28.3" width="41.8" height="38.3"/>
<rect x="37" y="21.7" width="27.1" height="18"/>
<rect x="26.3" y="35" width="2.9" height="21.3"/>
<rect x="37" y="45.7" width="34.1" height="23.4"/>
<rect x="61.8" y="21.7" width="4.5" height="28.3"/>
<rect x="64.1" y="38.5" width="11.5" height="11.5"/>
<rect x="45" y="64.3" width="9" height="9"/>
<rect x="57.7" y="35" width="15.7" height="22.4"/>
<rect x="26.3" y="28.3" class="st0" width="18.7" height="36"/>
<rect x="26.3" y="28.3" class="st0" width="18.7" height="36"/>
</svg>
