<?xml version="1.0" encoding="utf-8"?>
<!-- Generator: Adobe Illustrator 16.0.0, SVG Export Plug-In . SVG Version: 6.00 Build 0)  -->
<!DOCTYPE svg PUBLIC "-//W3C//DTD SVG 1.0//EN" "http://www.w3.org/TR/2001/REC-SVG-20010904/DTD/svg10.dtd">
<svg version="1.0" id="Layer_1" xmlns="http://www.w3.org/2000/svg" xmlns:xlink="http://www.w3.org/1999/xlink" x="0px" y="0px"
	 width="100px" height="100px" viewBox="0 0 100 100" enable-background="new 0 0 100 100" xml:space="preserve">
<path d="M76.667,60c0-0.742-0.102-1.462-0.219-2.171l0,0C84.44,54.128,90,46.055,90,36.666c0-12.891-10.449-23.333-23.33-23.333
	c-12.888,0-23.337,10.442-23.337,23.333c-9.205,0-16.666,7.462-16.666,16.667C17.461,53.333,10,60.794,10,70
	s7.461,16.667,16.667,16.667h50C84.03,86.667,90,80.696,90,73.333S84.03,60,76.667,60z M50,36.666C50,27.461,57.464,20,66.67,20
	c9.199,0,16.663,7.461,16.663,16.666c0,6.681-3.951,12.396-9.629,15.05c-2.441-3.054-6.155-5.049-10.371-5.049
	c-1.565,0-3.047,0.318-4.443,0.816c-1.568-4.163-4.752-7.51-8.779-9.326C50.065,37.662,50,37.174,50,36.666z M76.667,80h-50
	c-5.521,0-10-4.479-10-10c0-5.527,4.479-10,10-10h6.666v-6.667c0-5.527,4.477-10,10-10c4.893,0,8.949,3.516,9.814,8.158
	C51.211,53.806,50,56.748,50,60h6.667c0-3.685,2.984-6.667,6.666-6.667C67.019,53.333,70,56.315,70,60v1.849
	c-3.968,2.312-6.667,6.563-6.667,11.484H70c0-3.678,2.985-6.666,6.667-6.666s6.666,2.981,6.666,6.666
	C83.333,77.012,80.349,80,76.667,80z"/>
</svg>
