<?xml version="1.0" encoding="utf-8"?>
<!-- Generator: Adobe Illustrator 16.0.0, SVG Export Plug-In . SVG Version: 6.00 Build 0)  -->
<!DOCTYPE svg PUBLIC "-//W3C//DTD SVG 1.0//EN" "http://www.w3.org/TR/2001/REC-SVG-20010904/DTD/svg10.dtd">
<svg version="1.0" id="Layer_1" xmlns="http://www.w3.org/2000/svg" xmlns:xlink="http://www.w3.org/1999/xlink" x="0px" y="0px"
	 width="100px" height="100px" viewBox="0 0 100 100" enable-background="new 0 0 100 100" xml:space="preserve">
<rect x="11.464" y="11.464" transform="matrix(0.7071 0.7071 -0.7071 0.7071 15 -6.2132)" width="7.071" height="7.071"/>
<rect x="27.643" y="15.976" transform="matrix(0.7072 0.7071 -0.7071 0.7072 21.7479 -15.8429)" width="4.714" height="4.714"/>
<rect x="35.976" y="34.31" transform="matrix(0.7071 0.7071 -0.7071 0.7071 37.1549 -16.3664)" width="4.714" height="4.714"/>
<rect x="41.464" y="18.131" transform="matrix(0.7071 0.7071 -0.7071 0.7071 28.5007 -25.4738)" width="7.071" height="7.071"/>
<rect x="18.131" y="29.798" transform="matrix(0.7071 0.7071 -0.7071 0.7071 29.9163 -5.5574)" width="7.071" height="7.071"/>
<rect x="14.31" y="47.643" transform="matrix(0.7071 0.7071 -0.7071 0.7071 40.2367 2.8596)" width="4.714" height="4.714"/>
<path d="M73.333,56.667c-0.055-0.131-0.137-0.254-0.195-0.385C82.097,54.909,89.108,47.656,90,38.548
	c-2.015,0.866-4.231,1.354-6.565,1.354c-9.206,0-16.667-7.461-16.667-16.667c0-2.334,0.488-4.551,1.354-6.569
	c-10.121,0.996-18.021,9.525-18.021,19.902c0,2.409,0.446,4.714,1.228,6.849h0.007c-11.527,0.859-20.988,9.043-23.796,19.915h-4.206
	C15.97,63.333,10,69.304,10,76.667S15.97,90,23.333,90h50C82.539,90,90,82.539,90,73.333C90,64.128,82.539,56.667,73.333,56.667z
	 M56.768,36.569c0-3.577,1.426-6.81,3.721-9.206c1.712,9.577,9.245,17.109,18.815,18.822c-2.393,2.292-5.625,3.717-9.203,3.717
	c-0.494,0-0.963-0.091-1.441-0.144c-2.602-2.617-5.847-4.57-9.502-5.592h0.01C57.663,42.012,56.768,39.398,56.768,36.569z
	 M73.333,83.333h-50c-3.679,0-6.667-2.994-6.667-6.666c0-3.679,2.988-6.667,6.667-6.667h10c0-11.048,8.955-20,20-20
	c7.702,0,13.991,5.853,14.831,13.333h5.169c5.515,0,10,4.486,10,10C83.333,78.848,78.848,83.333,73.333,83.333z"/>
</svg>
