<?xml version="1.0" encoding="utf-8"?>
<!-- Generator: Adobe Illustrator 16.0.0, SVG Export Plug-In . SVG Version: 6.00 Build 0)  -->
<!DOCTYPE svg PUBLIC "-//W3C//DTD SVG 1.0//EN" "http://www.w3.org/TR/2001/REC-SVG-20010904/DTD/svg10.dtd">
<svg version="1.0" id="Layer_1" xmlns="http://www.w3.org/2000/svg" xmlns:xlink="http://www.w3.org/1999/xlink" x="0px" y="0px"
	 width="100px" height="100px" viewBox="0 0 100 100" enable-background="new 0 0 100 100" xml:space="preserve">
<rect x="46.666" y="10" width="6.667" height="6.667"/>
<rect x="83.333" y="46.667" width="6.667" height="6.666"/>
<polygon points="85.286,10 71.218,24.069 75.928,28.788 90,14.714 "/>
<polygon points="62.966,10 59.685,17.921 65.837,20.478 70.179,10 "/>
<polygon points="29.828,10 34.165,20.47 40.326,17.927 37.043,10 "/>
<polygon points="90,62.956 82.073,59.671 79.521,65.833 90,70.176 "/>
<polygon points="90,29.824 79.524,34.163 82.067,40.323 90,37.038 "/>
<path d="M76.667,50c0-14.728-11.943-26.667-26.667-26.667c-6.545,0-12.502,2.396-17.139,6.313
	C28.199,21.878,19.715,16.667,10,16.667v6.666c9.229,0,16.977,6.26,19.282,14.76c-2.55,1.016-4.851,2.523-6.758,4.434l4.714,4.713
	c2.414-2.415,5.746-3.906,9.428-3.906C44.031,43.333,50,49.304,50,56.667S44.031,70,36.666,70H30v6.667h6.666
	c8.705,0,16.088-5.57,18.839-13.334H60c5.524,0,10,4.477,10,10c0,5.524-4.476,10-10,10H10V90h50c9.206,0,16.667-7.461,16.667-16.667
	c0-3.838-1.348-7.327-3.529-10.143C75.371,59.297,76.667,54.805,76.667,50z M56.667,56.667c0-11.049-8.952-20-20.001-20
	c-0.283,0-0.557,0.031-0.836,0.042c-0.049-0.192-0.115-0.378-0.17-0.569C39.295,32.376,44.354,30,50,30c11.042,0,20,8.954,20,20
	c0,3.151-0.745,6.12-2.048,8.77c-2.373-1.299-5.055-2.103-7.952-2.103H56.667z"/>
</svg>
