<?xml version="1.0" encoding="utf-8"?>
<!-- Generator: Adobe Illustrator 16.0.0, SVG Export Plug-In . SVG Version: 6.00 Build 0)  -->
<!DOCTYPE svg PUBLIC "-//W3C//DTD SVG 1.0//EN" "http://www.w3.org/TR/2001/REC-SVG-20010904/DTD/svg10.dtd">
<svg version="1.0" id="Layer_1" xmlns="http://www.w3.org/2000/svg" xmlns:xlink="http://www.w3.org/1999/xlink" x="0px" y="0px"
	 width="100px" height="100px" viewBox="0 0 100 100" enable-background="new 0 0 100 100" xml:space="preserve">
<path d="M90,39.998c0-0.325-0.039-0.641-0.049-0.965c-2.1,0.62-4.316,0.967-6.618,0.967C70.446,40,60,29.555,60,16.665
	c0-2.3,0.345-4.517,0.967-6.616C60.642,10.039,60.325,10,60,10c-12.542,0-23.274,7.705-27.755,18.633
	C27.471,21.424,19.294,16.666,10,16.666v6.668c9.229,0,16.976,6.26,19.282,14.758c-2.551,1.016-4.85,2.525-6.758,4.434l4.713,4.715
	c2.414-2.416,5.748-3.906,9.43-3.906C44.032,43.334,50,49.303,50,56.667C50,64.03,44.032,70,36.667,70H30v6.667h6.667
	c8.704,0,16.087-5.57,18.838-13.334H60c5.524,0,10,4.477,10,10c0,5.524-4.476,10-10,10H10V90h50c9.206,0,16.667-7.461,16.667-16.667
	c0-2.649-0.674-5.12-1.774-7.347C83.906,60.82,90,51.14,90,39.998z M70.677,60.632c-2.9-2.438-6.592-3.965-10.677-3.965h-3.333
	c0-10.956-8.809-19.837-19.725-19.987c1.301-9.07,7.803-16.484,16.407-19.048c0.501,15.771,13.232,28.507,28.997,29.019
	C80.524,52.771,76.228,57.747,70.677,60.632z"/>
</svg>
