<?xml version="1.0" encoding="utf-8"?>
<!-- Generator: Adobe Illustrator 16.0.0, SVG Export Plug-In . SVG Version: 6.00 Build 0)  -->
<!DOCTYPE svg PUBLIC "-//W3C//DTD SVG 1.0//EN" "http://www.w3.org/TR/2001/REC-SVG-20010904/DTD/svg10.dtd">
<svg version="1.0" id="Layer_1" xmlns="http://www.w3.org/2000/svg" xmlns:xlink="http://www.w3.org/1999/xlink" x="0px" y="0px"
	 width="100px" height="100px" viewBox="0 0 100 100" enable-background="new 0 0 100 100" xml:space="preserve">
<path d="M90,36.901l-4.714-4.714L70.808,46.667h-7.946c-0.313-1.213-0.791-2.349-1.413-3.402l19.193-19.192l-4.714-4.714
	L56.735,38.552c-1.052-0.62-2.191-1.101-3.402-1.413v-7.946l14.479-14.479L63.099,10l-9.766,9.766V10h-6.667v9.766L36.901,10
	l-4.713,4.714l14.479,14.479v7.944c-1.211,0.314-2.349,0.795-3.401,1.415L24.072,19.358l-4.713,4.714l19.192,19.192
	c-0.62,1.054-1.1,2.189-1.414,3.402h-7.944L14.713,32.188L10,36.901l9.766,9.766H10v6.665h9.766L10,63.098l4.713,4.715l14.479-14.48
	h7.944c0.314,1.211,0.794,2.352,1.414,3.402L19.359,75.928l4.713,4.713l19.193-19.193c1.053,0.623,2.19,1.102,3.401,1.414v7.945
	L32.188,85.285L36.901,90l9.766-9.766V90h6.667v-9.766L63.099,90l4.714-4.715L53.333,70.807v-7.945
	c1.211-0.313,2.351-0.795,3.402-1.414l19.192,19.193l4.714-4.713L61.448,56.734c0.622-1.055,1.101-2.191,1.413-3.402h7.946
	l14.479,14.48L90,63.098l-9.766-9.766H90v-6.665h-9.766L90,36.901z M50,56.666c-3.685,0-6.667-2.982-6.667-6.666
	c0-3.685,2.981-6.667,6.667-6.667c3.682,0,6.667,2.982,6.667,6.667C56.667,53.684,53.682,56.666,50,56.666z"/>
<rect x="11.394" y="11.347" transform="matrix(0.7071 0.7071 -0.7071 0.7071 14.6797 -6.0799)" width="6.569" height="6.664"/>
<rect x="82.032" y="11.347" transform="matrix(-0.7071 0.7071 -0.7071 -0.7071 156.0281 -35.2706)" width="6.574" height="6.664"/>
<polygon points="80.645,85.354 85.286,90 90,85.285 85.354,80.645 "/>
<rect x="11.394" y="81.988" transform="matrix(0.7071 -0.7071 0.7071 0.7071 -56.0306 35.3707)" width="6.574" height="6.664"/>
</svg>
