<?xml version="1.0" encoding="utf-8"?>
<!-- Generator: Adobe Illustrator 16.0.0, SVG Export Plug-In . SVG Version: 6.00 Build 0)  -->
<!DOCTYPE svg PUBLIC "-//W3C//DTD SVG 1.0//EN" "http://www.w3.org/TR/2001/REC-SVG-20010904/DTD/svg10.dtd">
<svg version="1.0" id="Layer_1" xmlns="http://www.w3.org/2000/svg" xmlns:xlink="http://www.w3.org/1999/xlink" x="0px" y="0px"
	 width="100px" height="100px" viewBox="0 0 100 100" enable-background="new 0 0 100 100" xml:space="preserve">
<rect x="46.667" y="16.667" width="6.666" height="20"/>
<rect x="10" y="63.333" width="10" height="6.667"/>
<rect x="80" y="63.333" width="10" height="6.667"/>
<rect x="8.955" y="33.902" transform="matrix(-0.707 -0.7072 0.7072 -0.707 8.7833 78.1123)" width="23.232" height="6.671"/>
<rect x="67.81" y="33.904" transform="matrix(-0.7071 0.7071 -0.7071 -0.7071 161.9222 7.4062)" width="23.234" height="6.668"/>
<path d="M71.058,76.667c1.442-3.034,2.275-6.416,2.275-10c0-12.885-10.449-23.334-23.333-23.334S26.667,53.782,26.667,66.667
	c0,3.584,0.833,6.966,2.275,10H10v6.666h80v-6.666H71.058z M36.741,76.667c-2.109-2.793-3.408-6.23-3.408-10
	C33.333,57.461,40.794,50,50,50c9.202,0,16.667,7.461,16.667,16.667c0,3.77-1.299,7.207-3.408,10H36.741z"/>
</svg>
