<?xml version="1.0" encoding="utf-8"?>
<!-- Generator: Adobe Illustrator 16.0.0, SVG Export Plug-In . SVG Version: 6.00 Build 0)  -->
<!DOCTYPE svg PUBLIC "-//W3C//DTD SVG 1.0//EN" "http://www.w3.org/TR/2001/REC-SVG-20010904/DTD/svg10.dtd">
<svg version="1.0" id="Layer_1" xmlns="http://www.w3.org/2000/svg" xmlns:xlink="http://www.w3.org/1999/xlink" x="0px" y="0px"
	 width="100px" height="100px" viewBox="0 0 100 100" enable-background="new 0 0 100 100" xml:space="preserve">
<path d="M85.671,46.064C88.401,43.802,90,41.165,90,38.333c0-3.658-2.624-7.008-6.973-9.609c0.183-0.677,0.306-1.36,0.306-2.057
	C83.333,17.461,66.921,10,46.667,10C26.419,10,10,17.461,10,26.667c0,6.614,8.496,12.308,20.778,15
	c1.23,2.688,3.883,5.107,7.574,7.031c-1.07,1.445-1.686,3.001-1.686,4.635c0,2.526,1.432,4.883,3.88,6.898
	c-2.448,1.846-3.88,4.053-3.88,6.436c0,3.203,2.584,6.1,6.768,8.209C41.149,80.371,37.806,85.527,33.333,90
	c11.992,0,22.904-4.519,31.225-11.895c10.703-1.062,18.775-5.778,18.775-11.438c0-1.345-0.475-2.631-1.314-3.828
	C86.94,60.417,90,57.054,90,53.333C90,50.647,88.398,48.157,85.671,46.064z M16.667,26.667c0-2.904,10.514-10,30-10
	c19.485,0,30,7.096,30,10c0,2.903-10.515,10-30,10C27.181,36.667,16.667,29.57,16.667,26.667z M44.739,83.444
	c1.289-2.162,2.412-4.421,3.373-6.752c2.48,0.736,5.247,1.244,8.206,1.479C52.734,80.515,48.841,82.298,44.739,83.444z M60,71.667
	c-9.851,0-15.7-3.464-16.604-5c0.394-0.674,1.787-1.706,3.994-2.666c4.453,1.666,9.957,2.666,15.943,2.666
	c4.223,0,8.2-0.508,11.748-1.381c0.785,0.521,1.306,1.01,1.523,1.381C75.7,68.203,69.851,71.667,60,71.667z M63.333,60
	c-12.906,0-20-5.007-20-6.667c0-0.469,0.619-1.204,1.706-2.012c4.407,1.27,9.505,2.012,14.961,2.012
	c7.288,0,13.965-1.302,19.163-3.463c2.692,1.328,4.17,2.721,4.17,3.463C83.333,54.993,76.24,60,63.333,60z M60,46.667
	c-7.868,0-13.835-1.599-17.773-3.471c1.458,0.082,2.933,0.137,4.44,0.137c14.234,0,26.543-3.694,32.62-9.082
	c2.653,1.518,4.046,3.093,4.046,4.082C83.333,40.749,75.156,46.667,60,46.667z"/>
</svg>
