<?xml version="1.0" encoding="utf-8"?>
<!-- Generator: Adobe Illustrator 16.0.0, SVG Export Plug-In . SVG Version: 6.00 Build 0)  -->
<!DOCTYPE svg PUBLIC "-//W3C//DTD SVG 1.0//EN" "http://www.w3.org/TR/2001/REC-SVG-20010904/DTD/svg10.dtd">
<svg version="1.0" id="Layer_1" xmlns="http://www.w3.org/2000/svg" xmlns:xlink="http://www.w3.org/1999/xlink" x="0px" y="0px"
	 width="100px" height="100px" viewBox="0 0 100 100" enable-background="new 0 0 100 100" xml:space="preserve">
<path d="M83.333,56.667c0-17.283-13.157-31.492-30-33.166v-6.834h-6.666v6.834c-16.843,1.674-30,15.883-30,33.166
	c0,5.182,13.156,9.446,30,9.947V80c0,5.521,4.479,10,10,10c5.521,0,10-4.479,10-10v-3.333H60V80c0,1.839-1.494,3.333-3.333,3.333
	c-1.84,0-3.334-1.494-3.334-3.333V66.614C70.176,66.113,83.333,61.849,83.333,56.667z M53.333,59.935v-6.536
	c9.392,0.3,16.42,1.816,20.395,3.269C69.753,58.118,62.725,59.636,53.333,59.935z M50,30c12.556,0,23.054,8.688,25.889,20.372
	c-6.113-2.26-15.433-3.705-25.889-3.705s-19.776,1.445-25.889,3.704C26.944,38.688,37.446,30,50,30z M26.272,56.667
	c3.973-1.452,11.002-2.969,20.395-3.269v6.536C37.275,59.636,30.247,58.118,26.272,56.667z"/>
<polygon points="23.694,16.667 17.028,36.667 10,36.667 16.667,16.667 "/>
<polygon points="90,10 83.333,30 76.302,30 82.969,10 "/>
<polygon points="30,20 33.333,10 40.361,10 37.028,20 "/>
<polygon points="63.333,20 66.667,10 73.698,10 70.364,20 "/>
</svg>
