<?xml version="1.0" encoding="utf-8"?>
<!-- Generator: Adobe Illustrator 16.0.0, SVG Export Plug-In . SVG Version: 6.00 Build 0)  -->
<!DOCTYPE svg PUBLIC "-//W3C//DTD SVG 1.0//EN" "http://www.w3.org/TR/2001/REC-SVG-20010904/DTD/svg10.dtd">
<svg version="1.0" id="Layer_1" xmlns="http://www.w3.org/2000/svg" xmlns:xlink="http://www.w3.org/1999/xlink" x="0px" y="0px"
	 width="100px" height="100px" viewBox="0 0 100 100" enable-background="new 0 0 100 100" xml:space="preserve">
<path d="M40,70h10c0-11.049,8.955-20,20-20c7.702,0,13.991,5.852,14.831,13.332H90v-6.666c-2.91-6.985-9.378-12.088-17.136-13.114
	C65.003,23.894,45.794,10,23.333,10c-4.613,0-9.064,0.647-13.333,1.748v6.877c4.227-1.259,8.696-1.958,13.333-1.958
	c18.747,0,34.857,11.084,42.272,27.034c-2.266,0.376-4.437,1.035-6.472,1.945c-6.529-13.205-20.075-22.313-35.8-22.313
	c-4.683,0-9.157,0.847-13.333,2.326v7.134C14.085,31.006,18.589,30,23.333,30c13.317,0,24.769,7.832,30.104,19.124
	c-1.901,1.517-3.581,3.298-5.006,5.271C44.752,44.07,34.92,36.667,23.333,36.667c-4.863,0-9.408,1.323-13.333,3.597v8.193
	c3.54-3.176,8.203-5.124,13.333-5.124c11.045,0,20,8.954,20,19.999H40c-7.363,0-13.333,5.971-13.333,13.334S32.637,90,40,90h50
	v-6.668H40c-3.678,0-6.667-2.994-6.667-6.666C33.333,72.988,36.322,70,40,70z"/>
</svg>
