<?xml version="1.0" encoding="utf-8"?>
<!-- Generator: Adobe Illustrator 16.0.0, SVG Export Plug-In . SVG Version: 6.00 Build 0)  -->
<!DOCTYPE svg PUBLIC "-//W3C//DTD SVG 1.0//EN" "http://www.w3.org/TR/2001/REC-SVG-20010904/DTD/svg10.dtd">
<svg version="1.0" id="Layer_1" xmlns="http://www.w3.org/2000/svg" xmlns:xlink="http://www.w3.org/1999/xlink" x="0px" y="0px"
	 width="100px" height="100px" viewBox="0 0 100 100" enable-background="new 0 0 100 100" xml:space="preserve">
<polygon points="17.78,76.666 13.333,90 20.361,90 24.805,76.666 "/>
<polygon points="32.972,76.666 28.529,90 35.553,90 40,76.666 "/>
<polygon points="48.167,76.666 43.724,90 50.749,90 55.195,76.666 "/>
<polygon points="63.362,76.666 58.919,90 65.944,90 70.391,76.666 "/>
<polygon points="78.558,76.666 74.114,90 81.14,90 85.586,76.666 "/>
<path d="M73.333,36.667c-3.262-7.829-10.982-13.334-20-13.334c-2.467,0-4.856,0.352-7.122,0.98C44.376,16.126,37.079,10,28.335,10
	C18.209,10,10,18.21,10,28.333c0,6.723,3.633,12.585,9.027,15.775C13.789,45.908,10,50.82,10,56.666C10,64.029,15.97,70,23.335,70
	h49.998C82.539,70,90,62.539,90,53.332C90,44.128,82.539,36.667,73.333,36.667z M16.667,28.333c0-6.441,5.229-11.666,11.668-11.666
	c5.99,0,10.873,4.534,11.537,10.345c-5.013,2.952-8.972,7.503-11.191,12.956C28.563,39.971,28.452,40,28.335,40
	C21.896,40,16.667,34.775,16.667,28.333z M73.333,63.332H23.335c-3.68,0-6.668-2.99-6.668-6.666S19.655,50,23.335,50h10
	c0-11.045,8.958-20,19.998-20c7.702,0,13.991,5.853,14.831,13.333h5.169c5.515,0,10,4.486,10,9.999
	C83.333,58.848,78.848,63.332,73.333,63.332z"/>
</svg>
