<?xml version="1.0" encoding="utf-8"?>
<!-- Generator: Adobe Illustrator 16.0.0, SVG Export Plug-In . SVG Version: 6.00 Build 0)  -->
<!DOCTYPE svg PUBLIC "-//W3C//DTD SVG 1.0//EN" "http://www.w3.org/TR/2001/REC-SVG-20010904/DTD/svg10.dtd">
<svg version="1.0" id="Layer_1" xmlns="http://www.w3.org/2000/svg" xmlns:xlink="http://www.w3.org/1999/xlink" x="0px" y="0px"
	 width="100px" height="100px" viewBox="0 0 100 100" enable-background="new 0 0 100 100" xml:space="preserve">
<rect x="56.667" y="10" width="6.666" height="6.668"/>
<rect x="83.333" y="36.665" width="6.667" height="6.668"/>
<rect x="10" y="36.665" width="26.667" height="6.668"/>
<polygon points="85.283,10 74.141,21.145 78.86,25.854 90,14.715 "/>
<polygon points="25.282,10 41.146,25.864 45.859,21.145 34.713,10 "/>
<path d="M73.333,56.666c-0.625-1.5-1.458-2.881-2.389-4.186c3.482-3.057,5.723-7.485,5.723-12.48c0-9.206-7.461-16.667-16.67-16.667
	c-9.203,0-16.664,7.461-16.664,16.667c0,1.741,0.342,3.387,0.836,4.966c-8.153,2.993-14.432,9.854-16.631,18.366h-4.206
	C15.97,63.332,10,69.303,10,76.666S15.97,90,23.333,90h50C82.539,90,90,82.539,90,73.332C90,64.127,82.539,56.666,73.333,56.666z
	 M50,40c0-5.524,4.476-10,9.997-10C65.524,30,70,34.476,70,40c0,3.12-1.458,5.872-3.698,7.705
	c-3.619-2.722-8.089-4.372-12.969-4.372c-0.904,0-1.797,0.059-2.676,0.146C50.254,42.393,50,41.229,50,40z M73.333,83.332h-50
	c-3.679,0-6.667-2.994-6.667-6.666c0-3.678,2.988-6.666,6.667-6.666h10c0-11.049,8.955-20,20-20c7.702,0,13.991,5.852,14.831,13.332
	h5.169c5.515,0,10,4.486,10,10C83.333,78.848,78.848,83.332,73.333,83.332z"/>
</svg>
