<?xml version="1.0" encoding="utf-8"?>
<!-- Generator: Adobe Illustrator 16.0.0, SVG Export Plug-In . SVG Version: 6.00 Build 0)  -->
<!DOCTYPE svg PUBLIC "-//W3C//DTD SVG 1.0//EN" "http://www.w3.org/TR/2001/REC-SVG-20010904/DTD/svg10.dtd">
<svg version="1.0" id="Layer_1" xmlns="http://www.w3.org/2000/svg" xmlns:xlink="http://www.w3.org/1999/xlink" x="0px" y="0px"
	 width="100px" height="100px" viewBox="0 0 100 100" enable-background="new 0 0 100 100" xml:space="preserve">
<polygon points="58.665,56.667 46.667,56.667 40,76.667 50,76.667 45.553,90 48.333,90 63.333,70 53.333,70 "/>
<path d="M90,33.333h-5c-2.754,0-5-2.243-5-5c0-2.757,2.246-5,5-5h5v-6.667h-5c-6.438,0-11.667,5.225-11.667,11.667
	C73.333,34.779,78.562,40,85,40h5V33.333z"/>
<path d="M73.333,43.333c-2.874-6.898-9.215-11.979-16.849-13.093c0.107-0.622,0.183-1.256,0.183-1.907
	c0-6.442-5.222-11.667-11.667-11.667h-5.977c-0.718-2.409-1.813-4.655-3.218-6.667h-9.232c4.079,3.037,6.76,7.855,6.76,13.333H45
	c2.76,0,5,2.243,5,5c0,0.69-0.144,1.348-0.397,1.946c-3.284,0.462-6.381,1.504-9.167,3.054H10V40h22.562
	c-2.324,2.9-4.066,6.289-5.023,10h-4.206C15.97,50,10,55.97,10,63.333s5.97,13.334,13.333,13.334h10V70h-10
	c-3.679,0-6.667-2.991-6.667-6.667c0-3.675,2.988-6.666,6.667-6.666h10c0-11.045,8.955-20,20-20c7.702,0,13.991,5.853,14.831,13.333
	h5.169c5.515,0,10,4.485,10,10s-4.485,10-10,10H70v6.667h3.333C82.539,76.667,90,69.206,90,60S82.539,43.333,73.333,43.333z"/>
</svg>
